<svg xmlns="http://www.w3.org/2000/svg" width="144" height="59" viewBox="0 0 144 59" fill="none"><path d="M2.43461 33.508C2.43461 33.508 4.24721 33.0306 7.4442 32.2212C9.04269 31.8165 10.9665 31.2641 13.2012 30.8443C15.4305 30.4006 17.9311 29.7959 20.683 29.2867C22.0643 29.0561 23.5188 28.8093 24.9923 28.5331C26.4764 28.3049 28.0124 27.9644 29.61 27.7866C31.197 27.5608 32.8381 27.3483 34.5279 27.1249C35.3729 27.0132 36.2178 26.9014 37.0627 26.7897C37.9129 26.7021 38.7876 26.609 39.6622 26.5159C41.4114 26.3297 43.1904 26.1621 44.9937 25.9891C46.797 25.8162 48.6217 25.7392 50.4547 25.5849C54.1208 25.2761 57.8888 25.1967 61.6165 25.0507C63.4952 24.9869 65.3655 25.0007 67.2305 24.9904C69.0955 24.9801 70.9551 24.9458 72.8117 25.0129C74.6629 25.0561 76.4844 25.0806 78.2869 25.1346C80.0947 25.2125 81.8834 25.3199 83.6372 25.3847C85.3909 25.4494 87.1118 25.597 88.803 25.726C90.4995 25.8791 92.1313 25.9708 93.7304 26.1455C96.9284 26.4947 99.9642 26.8044 102.748 27.2455C104.127 27.4688 105.486 27.596 106.743 27.8463C107.996 28.0725 109.194 28.2856 110.314 28.4909C111.428 28.6721 112.48 28.9176 113.448 29.1313C114.417 29.345 115.306 29.5509 116.088 29.7303C117.681 30.1079 118.892 30.4945 119.757 30.7057C120.604 30.9464 121.042 31.0761 121.042 31.0761L121.066 31.0707C121.204 31.1157 121.364 31.0299 121.41 30.8936C121.457 30.7573 121.371 30.6 121.233 30.555C121.233 30.555 120.795 30.4253 119.943 30.1606C119.097 29.9199 117.856 29.5147 116.282 29.1078C115.471 28.9097 114.606 28.6984 113.632 28.4607C112.659 28.223 111.631 27.9721 110.506 27.7428C109.381 27.5136 108.177 27.2765 106.92 27.0262C105.657 26.7519 104.317 26.5953 102.932 26.348C100.163 25.8534 97.1162 25.4957 93.9075 25.0985C92.3032 24.8998 90.6364 24.7654 88.9589 24.583C87.257 24.406 85.5361 24.2583 83.7718 24.1456C82.0074 24.0328 80.2133 23.9014 78.3949 23.7754C76.5871 23.6974 74.7305 23.6303 72.8984 23.5577C71.0365 23.4665 69.1662 23.4528 67.2959 23.4391C65.4256 23.4254 63.5203 23.369 61.6363 23.4087C57.8682 23.4881 54.0895 23.5195 50.3778 23.7376C48.5341 23.8439 46.6798 23.9023 44.8658 24.0272C43.0571 24.1762 41.2485 24.3251 39.4886 24.4633C38.6086 24.5324 37.7287 24.6015 36.8785 24.6891C36.0038 24.7822 35.1589 24.8939 34.3087 24.9816C32.6135 25.181 30.9671 25.3696 29.3451 25.5528C27.7178 25.7119 26.1711 26.0044 24.6573 26.214C23.1487 26.4476 21.689 26.6704 20.278 26.8823C17.491 27.3489 14.9257 27.8924 12.6423 28.3229C10.3536 28.7294 8.41906 29.2338 6.81525 29.6145C3.60761 30.3759 1.78437 30.8052 1.78437 30.8052C1.05294 30.9674 0.600875 31.6974 0.760558 32.4178C0.920242 33.1382 1.65752 33.5794 2.38894 33.4173C2.43461 33.508 2.43461 33.508 2.43461 33.508Z" fill="url(#paint0_linear_463_910)"></path><path d="M115.796 29.5683C116.869 30.7161 117.959 32.2883 119.68 33.8215C121.383 35.3842 123.686 36.8891 127.219 38.1719C130.8 39.4439 133.933 39.9589 136.667 40.4108C137.355 40.5104 137.993 40.6209 138.631 40.7313C139.27 40.8417 139.859 40.963 140.405 41.119C140.676 41.1851 140.976 41.2697 141.222 41.3411C141.498 41.4312 141.749 41.5266 141.976 41.6275C142.503 41.8129 142.9 42.1029 143.302 42.4169L143.232 42.3316C143.087 42.1371 142.936 41.9186 142.785 41.7001C142.634 41.4816 142.44 41.2979 142.289 41.0793C142.114 40.8662 141.964 40.6477 141.759 40.416C141.584 40.2029 141.403 39.9657 141.198 39.734C140.813 39.2652 140.422 38.7723 140.007 38.2848C139.592 37.7974 139.137 37.2433 138.644 36.748C136.697 34.6601 134.229 32.4107 130.658 30.6074C127.062 28.8095 124.078 28.3876 121.66 28.4448C119.229 28.5553 117.37 29.169 115.796 29.5683Z" fill="url(#paint1_linear_463_910)"></path><path d="M115.796 29.5683C121.326 31.0887 127.434 33.4886 132.519 35.8886C135.086 37.0831 137.374 38.2891 139.229 39.3895C141.09 40.5139 142.556 41.4738 143.232 42.3316C143.087 42.1371 142.936 41.9186 142.785 41.7001C142.634 41.4816 142.44 41.2979 142.289 41.0793C142.114 40.8662 141.964 40.6477 141.759 40.416C141.584 40.2029 141.403 39.9657 141.198 39.734C140.813 39.2652 140.422 38.7723 140.007 38.2848C139.592 37.7974 139.137 37.2433 138.644 36.748C136.697 34.6601 134.229 32.4107 130.658 30.6074C127.062 28.8095 124.078 28.3876 121.66 28.4448C119.229 28.5553 117.37 29.169 115.796 29.5683Z" fill="url(#paint2_linear_463_910)"></path><path d="M108.16 28.2376C108.16 28.2376 108.685 28.2976 109.602 28.3967C110.073 28.4435 110.614 28.5755 111.252 28.686C111.571 28.7412 111.915 28.791 112.264 28.8648C112.613 28.9386 112.991 29.0311 113.37 29.1235C116.466 29.8228 120.533 31.0881 124.519 32.5726C125.52 32.9304 126.506 33.3416 127.468 33.7582C128.425 34.1508 129.362 34.5728 130.27 34.9761C132.086 35.7829 133.75 36.5981 135.188 37.3125C136.625 38.0268 137.767 38.6806 138.583 39.1296C139.38 39.608 139.844 39.8577 139.844 39.8577C139.904 39.895 139.953 39.8842 139.977 39.8787C139.996 39.8493 139.961 39.8067 139.907 39.7935C139.907 39.7935 139.461 39.5144 138.64 39.0413C137.849 38.5869 136.677 37.9146 135.264 37.1948C133.846 36.451 132.181 35.6358 130.385 34.7996C129.471 34.3722 128.534 33.9502 127.572 33.5336C126.61 33.117 125.642 32.6764 124.642 32.3187C120.669 30.7807 116.592 29.4674 113.485 28.7201C113.107 28.6276 112.728 28.5352 112.374 28.4374C112.025 28.3635 111.676 28.2897 111.357 28.2345C110.718 28.1241 110.153 27.9974 109.701 27.9212C108.755 27.8036 108.23 27.7435 108.23 27.7435C107.916 27.7123 107.677 27.7904 107.655 27.9213C107.609 28.0576 107.841 28.1824 108.16 28.2376Z" fill="url(#paint3_linear_463_910)"></path><path d="M18.1717 22.6884C19.6035 21.9932 21.4329 21.3609 23.4188 20.1649C25.4046 18.9689 27.5469 17.2092 29.7696 14.1972C32.0358 11.1503 33.4296 8.32205 34.6244 5.86538C34.9218 5.24521 35.2055 4.67847 35.4891 4.11173C35.7727 3.54499 36.067 3.02628 36.3666 2.53158C36.5138 2.27223 36.6662 2.03688 36.8187 1.80154C36.9765 1.59021 37.1587 1.37348 37.3164 1.16215C37.6511 0.710074 38.0474 0.420687 38.4436 0.131302L38.327 0.182338C38.0939 0.284408 37.8554 0.362461 37.5925 0.445922C37.3297 0.529382 37.1018 0.655466 36.8443 0.762941C36.5867 0.870414 36.3292 0.977888 36.0473 1.09077C35.7897 1.19824 35.5078 1.31111 35.2312 1.448C34.6673 1.67376 34.0844 1.92894 33.4771 2.18951C32.8698 2.45009 32.2191 2.74549 31.5981 3.0595C29.0165 4.33715 26.1299 6.08548 23.3419 8.97087C20.5836 11.8749 19.3148 14.5747 18.6998 16.8776C18.1336 19.1698 18.2074 21.1185 18.1717 22.6884Z" fill="url(#paint4_linear_463_910)"></path><path d="M18.1717 22.6884C21.1944 17.8615 25.2495 12.7302 29.052 8.53657C30.9385 6.43047 32.7562 4.59153 34.375 3.12421C35.9746 1.68631 37.335 0.553396 38.3408 0.128906C38.1076 0.230975 37.8691 0.309036 37.6063 0.392496C37.3434 0.475955 37.1155 0.602033 36.858 0.709506C36.6005 0.81698 36.3429 0.924455 36.061 1.03733C35.8034 1.1448 35.5215 1.25769 35.2449 1.39458C34.6811 1.62033 34.0982 1.8755 33.4909 2.13608C32.8836 2.39666 32.2329 2.69206 31.6118 3.00607C29.0302 4.28372 26.1437 6.03205 23.3557 8.91744C20.5974 11.8214 19.3286 14.5213 18.7136 16.8242C18.1336 19.1698 18.2074 21.1185 18.1717 22.6884Z" fill="url(#paint5_linear_463_910)"></path><path d="M14.6865 29.5829C14.6865 29.5829 14.8886 29.1099 15.2356 28.252C15.4239 27.8323 15.6992 27.343 15.9828 26.7763C16.1246 26.4929 16.2855 26.1801 16.4464 25.8673C16.6316 25.5491 16.8169 25.2309 17.0212 24.8833C18.5826 22.1187 20.9534 18.6203 23.532 15.2523C24.1632 14.407 24.8484 13.5749 25.5146 12.7722C26.1808 11.9695 26.8523 11.1908 27.5047 10.4415C28.8096 8.94301 30.0626 7.55676 31.1685 6.42986C32.2691 5.27895 33.2119 4.33937 33.8909 3.71017C34.57 3.08098 34.9503 2.71955 34.9503 2.71955C34.9937 2.68473 35.0075 2.6313 35.0022 2.60728C34.9968 2.58327 34.9237 2.59948 34.8802 2.6343C34.8802 2.6343 34.4756 3.00113 33.7965 3.63033C33.1174 4.25952 32.145 5.1805 31.0444 6.33141C29.9141 7.46371 28.6558 8.82596 27.3265 10.3299C26.6497 11.0845 25.9729 11.8392 25.3067 12.6419C24.6161 13.45 23.9256 14.2581 23.2944 15.1034C20.6616 18.4583 18.2421 21.9674 16.6266 24.7189C16.4223 25.0665 16.2371 25.3847 16.0518 25.7028C15.8909 26.0156 15.7301 26.3284 15.5639 26.6172C15.2558 27.1893 14.9806 27.6786 14.7976 28.1223C14.4262 28.9856 14.1997 29.4641 14.1997 29.4641C14.0823 29.7421 14.0868 29.993 14.2247 30.038C14.3572 30.059 14.5691 29.8609 14.6865 29.5829Z" fill="url(#paint6_linear_463_910)"></path><path d="M37.3398 20.0773C38.8735 19.6113 40.7668 19.2672 42.9003 18.3912C45.0582 17.5098 47.4319 16.1019 50.1215 13.4651C52.8302 10.7988 54.6642 8.22566 56.2345 5.96288C56.621 5.39854 57.0128 4.85821 57.3856 4.3473C57.753 3.81238 58.112 3.3549 58.5008 2.91603C58.6829 2.69929 58.8651 2.48256 59.0716 2.26042C59.2591 2.0677 59.471 1.86958 59.6638 1.70087C60.0632 1.31003 60.4998 1.08728 60.9608 0.85913L60.8389 0.886151C60.5951 0.940193 60.3513 0.994234 60.0778 1.02967C59.8043 1.0651 59.5711 1.16717 59.3029 1.22662C59.0347 1.28606 58.7665 1.34551 58.4739 1.41036C58.2058 1.4698 57.9185 1.55867 57.6259 1.62352C57.0164 1.75862 56.4122 1.91774 55.7836 2.08226C55.1307 2.25219 54.4533 2.42752 53.7866 2.65088C51.0361 3.5125 47.8914 4.78898 44.6991 7.23493C41.5068 9.68088 39.8327 12.1682 38.8582 14.3493C37.8456 16.5892 37.6109 18.5308 37.3398 20.0773Z" fill="url(#paint7_linear_463_910)"></path><path d="M37.3398 20.0773C41.0913 15.769 45.9125 11.3244 50.3136 7.75398C52.4993 5.95945 54.611 4.40806 56.4208 3.2259C58.2307 2.04373 59.7471 1.15335 60.8145 0.891555C60.5707 0.945597 60.3269 0.999639 60.0534 1.03507C59.7799 1.0705 59.5467 1.17257 59.2785 1.23202C59.0103 1.29147 58.7421 1.35091 58.4496 1.41576C58.1814 1.47521 57.8941 1.56407 57.6016 1.62892C56.992 1.76403 56.3878 1.92314 55.7593 2.08767C55.1063 2.25759 54.429 2.43292 53.7623 2.65628C51.0117 3.5179 47.8671 4.79438 44.6747 7.24033C41.4824 9.68629 39.8084 12.1736 38.8338 14.3547C37.8456 16.5892 37.6109 18.5308 37.3398 20.0773Z" fill="url(#paint8_linear_463_910)"></path><path d="M32.8202 26.3445C32.8202 26.3445 33.1061 25.9032 33.5963 25.1143C33.8441 24.7319 34.1787 24.2798 34.5514 23.7689C34.7473 23.4988 34.9433 23.2286 35.1582 22.929C35.3785 22.6534 35.6178 22.3484 35.8816 22.0381C37.8641 19.5579 40.7558 16.448 43.8364 13.4978C44.5917 12.7509 45.382 12.0467 46.1776 11.3664C46.9679 10.6622 47.7445 10.0114 48.4967 9.36599C50.0255 8.06977 51.4834 6.91524 52.7537 5.95343C54.0188 4.96761 55.1017 4.19851 55.8805 3.67318C56.6593 3.14784 57.1043 2.84765 57.1043 2.84765C57.1478 2.81283 57.1912 2.778 57.1562 2.73538C57.1509 2.71136 57.1021 2.72217 57.0343 2.7624C57.0343 2.7624 56.5893 3.06259 55.8051 3.56392C55.0263 4.08925 53.9381 4.83433 52.6433 5.80155C51.3486 6.76876 49.8854 7.89928 48.3513 9.17148C47.5694 9.79828 46.7684 10.4545 45.9781 11.1587C45.1825 11.839 44.3678 12.5486 43.6072 13.2715C40.4916 16.1791 37.5458 19.2758 35.5092 21.7427C35.2454 22.0531 35.0061 22.3581 34.7858 22.6336C34.5708 22.9332 34.3506 23.2088 34.179 23.4736C33.7872 24.0139 33.4473 24.442 33.1751 24.8298C32.6606 25.6241 32.3747 26.0653 32.3747 26.0653C32.2032 26.3301 32.1833 26.5864 32.2967 26.6369C32.4262 26.7593 32.6487 26.6092 32.8202 26.3445Z" fill="url(#paint9_linear_463_910)"></path><path d="M54.8266 18.9977C56.3976 18.6998 58.3197 18.6013 60.5552 17.9546C62.796 17.332 65.3311 16.1906 68.3009 13.8947C71.3142 11.564 73.4262 9.20639 75.2448 7.14052C75.6907 6.6134 76.1472 6.1343 76.5794 5.66061C77.0116 5.18691 77.43 4.76665 77.8537 4.3704C78.0656 4.17228 78.2775 3.97416 78.4947 3.80005C78.7119 3.62594 78.9344 3.47584 79.1569 3.32574C79.5913 2.97752 80.0386 2.8028 80.5399 2.64129L80.418 2.66831C80.1689 2.69834 79.9144 2.70435 79.6409 2.73979C79.3621 2.75121 79.1183 2.80525 78.8448 2.84068C78.5712 2.87611 78.2977 2.91155 77.9945 2.92837C77.721 2.9638 77.4231 3.00464 77.1252 3.04547C76.5241 3.10313 75.8796 3.19562 75.235 3.2881C74.5905 3.38058 73.8728 3.48927 73.1848 3.61658C70.3353 4.14741 67.0865 5.06909 63.6276 7.12062C60.1688 9.17216 58.2168 11.444 56.9909 13.5296C55.7597 15.5913 55.3087 17.48 54.8266 18.9977Z" fill="url(#paint10_linear_463_910)"></path><path d="M54.8266 18.9977C59.0662 15.1607 64.3725 11.2888 69.1505 8.26464C71.5516 6.74986 73.795 5.44641 75.7503 4.45875C77.6865 3.50051 79.2889 2.76742 80.3883 2.6497C80.1392 2.67973 79.8847 2.68574 79.6112 2.72118C79.3324 2.7326 79.0886 2.78664 78.815 2.82207C78.5415 2.85751 78.268 2.89294 77.9648 2.90976C77.6913 2.94519 77.3934 2.98603 77.0955 3.02686C76.4944 3.08452 75.8498 3.17701 75.2053 3.26949C74.5608 3.36197 73.8431 3.47067 73.1551 3.59797C70.3056 4.1288 67.0568 5.05048 63.5979 7.10201C60.1391 9.15355 58.1871 11.4253 56.9612 13.511C55.7597 15.5913 55.3087 17.48 54.8266 18.9977Z" fill="url(#paint11_linear_463_910)"></path><path d="M49.5972 24.7168C49.5972 24.7168 49.9181 24.3182 50.4974 23.5851C50.7749 23.2213 51.1743 22.8304 51.6064 22.3567C51.8373 22.1292 52.063 21.8777 52.3076 21.5967C52.5576 21.3397 52.832 21.0774 53.1254 20.7856C55.3913 18.545 58.6173 15.7892 62.0374 13.2172C62.8628 12.5556 63.7528 11.9552 64.6185 11.3602C65.4842 10.7652 66.3255 10.1757 67.1775 9.63412C68.8517 8.53241 70.4253 7.55377 71.8008 6.71983C73.1762 5.88589 74.3398 5.25007 75.1643 4.81539C75.9888 4.3807 76.4741 4.14714 76.4741 4.14714C76.5176 4.11232 76.561 4.0775 76.5557 4.05348C76.5504 4.02947 76.5016 4.04028 76.4285 4.05649C76.4285 4.05649 75.9431 4.29004 75.1186 4.72473C74.2941 5.15942 73.1008 5.77663 71.7201 6.58656C70.3393 7.39649 68.736 8.35651 67.0564 9.43421C66.2045 9.97576 65.3335 10.5467 64.4678 11.1417C63.6021 11.7367 62.712 12.3371 61.857 12.9801C58.4262 15.5041 55.1217 18.252 52.8261 20.474C52.5274 20.7418 52.2583 21.0282 52.003 21.2611C51.753 21.5181 51.503 21.775 51.3018 22.0212C50.8697 22.4949 50.4459 22.8911 50.1685 23.2549C49.5648 23.9934 49.2439 24.392 49.2439 24.392C49.0427 24.6382 48.993 24.8759 49.1119 24.9504C49.1628 25.065 49.4204 24.9575 49.5972 24.7168Z" fill="url(#paint12_linear_463_910)"></path><path d="M72.5786 19.3457C74.1679 19.2454 76.0945 19.3978 78.3938 19.0392C80.6985 18.7048 83.3622 17.9128 86.5932 15.9873C89.8782 14.0751 92.2789 11.981 94.3617 10.184C94.8724 9.71814 95.3692 9.30568 95.8661 8.89322C96.363 8.48076 96.8165 8.10312 97.3049 7.76811C97.5465 7.58859 97.769 7.4385 98.0159 7.283C98.2438 7.15691 98.4907 7.00141 98.7238 6.89934C99.1986 6.61776 99.6862 6.50968 100.174 6.40159L100.047 6.4046C99.7921 6.41061 99.5567 6.38721 99.2726 6.37462C99.0128 6.35662 98.7393 6.39205 98.4551 6.37946C98.1953 6.36146 97.9165 6.37287 97.608 6.36568C97.3291 6.3771 97.0206 6.36991 96.7121 6.36272C96.095 6.34834 95.4588 6.36338 94.7983 6.38382C94.1378 6.40426 93.4232 6.4115 92.7193 6.46676C89.8387 6.62658 86.4994 7.14002 82.8069 8.7143C79.1197 10.3126 76.8791 12.3208 75.4049 14.2096C73.9551 16.0929 73.258 17.9102 72.5786 19.3457Z" fill="url(#paint13_linear_463_910)"></path><path d="M72.5786 19.3457C77.2737 16.0628 83.0481 12.9185 88.1946 10.5181C90.7678 9.31789 93.1779 8.305 95.2161 7.57609C97.2596 6.87119 98.9587 6.34341 100.036 6.35657C99.7815 6.36259 99.5461 6.33918 99.2619 6.32659C99.0022 6.30859 98.7286 6.34402 98.4445 6.33143C98.1847 6.31343 97.9059 6.32485 97.5973 6.31766C97.3185 6.32908 97.01 6.32188 96.7014 6.31469C96.0843 6.30031 95.4482 6.31535 94.7877 6.33579C94.1272 6.35623 93.4126 6.36347 92.7086 6.41873C89.8281 6.57855 86.4887 7.092 82.7962 8.66627C79.1091 10.2646 76.8684 12.2728 75.3942 14.1616C73.9551 16.0929 73.258 17.9102 72.5786 19.3457Z" fill="url(#paint14_linear_463_910)"></path><path d="M66.651 24.3378C66.651 24.3378 67.0313 23.9764 67.7051 23.3232C68.0419 22.9966 68.4763 22.6484 68.9732 22.2359C69.2095 22.0324 69.4945 21.818 69.7742 21.5797C70.0592 21.3654 70.3632 21.1216 70.697 20.8965C73.2378 18.9728 76.814 16.6433 80.5167 14.5378C81.4471 14.004 82.3828 13.4943 83.3048 13.038C84.2215 12.5577 85.1679 12.0959 86.0655 11.645C87.8661 10.7673 89.5608 9.98853 91.0329 9.3599C92.4997 8.70726 93.7493 8.22873 94.6194 7.8847C95.4949 7.56467 95.9909 7.37914 95.9909 7.37914C96.0397 7.36833 96.0831 7.33351 96.0725 7.28548C96.0672 7.26147 96.0131 7.24826 95.9697 7.28309C95.9697 7.28309 95.4736 7.46862 94.5928 7.76463C93.7173 8.08465 92.4677 8.56318 90.9956 9.19181C89.5182 9.79642 87.7938 10.5565 85.9932 11.4343C85.0903 11.8612 84.1439 12.3229 83.2219 12.7792C82.2755 13.2409 81.3101 13.7321 80.404 14.2604C76.6664 16.3234 73.0307 18.6156 70.4656 20.5447C70.1371 20.7938 69.8277 21.0136 69.5427 21.2279C69.263 21.4663 69.0024 21.6752 68.7417 21.8841C68.2449 22.2966 67.7861 22.6502 67.4492 22.9768C66.7702 23.606 66.3708 23.9968 66.3708 23.9968C66.1589 24.195 66.0605 24.4435 66.1603 24.5474C66.1572 24.6488 66.4201 24.5654 66.651 24.3378Z" fill="url(#paint15_linear_463_910)"></path><path d="M89.162 21.6911C90.7145 22.002 92.5419 22.6299 94.8471 22.8747C97.1576 23.1436 99.9216 23.0348 103.56 22.0267C107.224 21.0131 110.106 19.5932 112.577 18.3906C113.198 18.0765 113.775 17.7974 114.353 17.5182C114.931 17.239 115.489 16.9892 116.034 16.7929C116.316 16.68 116.573 16.5725 116.836 16.4891C117.099 16.4056 117.367 16.3462 117.635 16.2867C118.167 16.1438 118.656 16.1612 119.171 16.1732L119.062 16.1468C118.816 16.0753 118.57 16.0039 118.319 15.9085C118.068 15.813 117.803 15.771 117.532 15.705C117.286 15.6336 117.01 15.5435 116.715 15.4829C116.445 15.4169 116.169 15.3268 115.875 15.2662C115.274 15.0969 114.674 14.9277 114.03 14.7932C113.381 14.6348 112.703 14.4577 112.01 14.334C109.2 13.7728 105.815 13.3894 101.856 13.9899C97.8719 14.5958 95.1844 15.9725 93.2571 17.4327C91.3542 18.8874 90.1925 20.4549 89.162 21.6911Z" fill="url(#paint16_linear_463_910)"></path><path d="M89.162 21.6911C94.5558 19.7145 100.955 18.1197 106.543 17.1331C109.344 16.6131 111.927 16.2672 114.088 16.0906C116.248 15.914 118 15.8533 119.062 16.1468C118.816 16.0753 118.57 16.0039 118.319 15.9085C118.068 15.813 117.803 15.771 117.532 15.705C117.286 15.6336 117.01 15.5435 116.715 15.4829C116.445 15.4169 116.169 15.3268 115.875 15.2662C115.274 15.0969 114.674 14.9277 114.03 14.7932C113.381 14.6348 112.703 14.4577 112.01 14.334C109.2 13.7728 105.815 13.3894 101.856 13.9899C97.8719 14.5958 95.1844 15.9725 93.2571 17.4327C91.3542 18.8874 90.1925 20.4549 89.162 21.6911Z" fill="url(#paint17_linear_463_910)"></path><path d="M82.1228 25.0149C82.1228 25.0149 82.5785 24.7628 83.3976 24.3041C83.8099 24.0867 84.3196 23.8478 84.8972 23.5686C85.1982 23.4263 85.4992 23.284 85.8246 23.1363C86.1499 22.9886 86.505 22.8595 86.8791 22.701C89.8287 21.4677 93.8829 20.1408 98.0148 19.0486C99.0472 18.7442 100.071 18.5172 101.101 18.3142C102.125 18.0872 103.124 17.8657 104.105 17.6735C106.066 17.2892 107.91 16.9559 109.497 16.7301C111.079 16.4803 112.403 16.338 113.327 16.2341C114.255 16.1542 114.783 16.1127 114.783 16.1127C114.832 16.1019 114.905 16.0857 114.9 16.0617C114.894 16.0377 114.84 16.0245 114.786 16.0113C114.786 16.0113 114.258 16.0527 113.33 16.1326C112.401 16.2125 111.077 16.3549 109.49 16.5807C107.903 16.8065 106.048 17.0917 104.087 17.476C103.106 17.6682 102.071 17.8471 101.047 18.0741C100.018 18.277 98.9696 18.5094 97.9319 18.7898C93.7894 19.834 89.7054 21.1424 86.6964 22.3384C86.3223 22.4969 85.9672 22.626 85.6122 22.7551C85.2868 22.9028 84.9614 23.0505 84.6605 23.1928C84.0585 23.4774 83.5434 23.6923 83.1312 23.9096C82.3067 24.3443 81.8319 24.6259 81.8319 24.6259C81.5553 24.7628 81.3975 24.9741 81.4782 25.1074C81.5971 25.1818 81.8515 25.1758 82.1228 25.0149Z" fill="url(#paint18_linear_463_910)"></path><path d="M24.8069 34.6206C26.1817 35.3992 27.9762 36.1099 29.8498 37.4078C31.7721 38.6949 33.7734 40.569 35.7971 43.698C37.8504 46.8455 39.0575 49.7523 40.0765 52.2725C40.3231 52.9233 40.5781 53.4966 40.833 54.0699C41.0636 54.6486 41.3377 55.1925 41.601 55.6884C41.7327 55.9364 41.8697 56.2083 41.9961 56.4322C42.1469 56.6508 42.2976 56.8693 42.4484 57.0878C42.7552 57.5488 43.1276 57.8442 43.5107 58.1876L43.3972 58.1372C43.1702 58.0363 42.9432 57.9355 42.6918 57.84C42.4405 57.7446 42.2326 57.6143 41.9759 57.4948C41.7436 57.37 41.4625 57.2559 41.2058 57.1365C40.9491 57.017 40.6871 56.8735 40.4304 56.7541C39.8873 56.4966 39.3146 56.2204 38.7365 55.9203C38.1583 55.6201 37.5262 55.3068 36.9077 54.94C34.4202 53.5263 31.6448 51.6221 29.0604 48.6175C26.4951 45.5835 25.3931 42.8045 24.9553 40.483C24.5365 38.132 24.7468 36.1959 24.8069 34.6206Z" fill="url(#paint19_linear_463_910)"></path><path d="M24.8069 34.6206C27.4948 39.5926 31.2126 44.9409 34.7366 49.2992C36.4741 51.4838 38.1882 53.4469 39.6792 54.9807C41.1946 56.5091 42.4542 57.6911 43.4566 58.1744C43.2296 58.0735 43.0026 57.9727 42.7513 57.8772C42.4999 57.7818 42.292 57.6515 42.0353 57.5321C41.803 57.4072 41.5219 57.2931 41.2652 57.1737C41.0085 57.0542 40.7465 56.9108 40.4898 56.7913C39.9468 56.5338 39.374 56.2576 38.7959 55.9575C38.2178 55.6573 37.5856 55.344 36.9671 54.9772C34.4796 53.5635 31.7042 51.6593 29.1198 48.6547C26.5545 45.6207 25.4525 42.8417 25.0147 40.5202C24.5365 38.132 24.7468 36.1959 24.8069 34.6206Z" fill="url(#paint20_linear_463_910)"></path><path d="M21.7884 27.5805C21.7884 27.5805 21.9733 28.0686 22.2678 28.9354C22.4123 29.3569 22.6514 29.8582 22.9117 30.4555C23.0296 30.7569 23.1719 31.0528 23.3249 31.3968C23.4726 31.7168 23.65 32.0554 23.8326 32.418C25.1997 35.2389 27.3405 38.8962 29.6984 42.3793C30.277 43.2588 30.8991 44.1034 31.5212 44.9481C32.1188 45.7981 32.7546 46.5894 33.3417 47.3914C34.5348 48.9661 35.696 50.3966 36.7308 51.6033C37.7413 52.8153 38.6497 53.7981 39.2589 54.4692C39.8925 55.135 40.2565 55.5078 40.2565 55.5078C40.2915 55.5504 40.3022 55.5984 40.3075 55.6224C40.2884 55.6519 40.229 55.6146 40.194 55.572C40.194 55.572 39.83 55.1992 39.172 54.5389C38.5385 53.8731 37.6353 52.9144 36.6005 51.7077C35.5657 50.5011 34.3854 49.0999 33.1435 47.5361C32.5374 46.7635 31.8963 45.9482 31.2796 45.1276C30.6628 44.3069 30.0111 43.4437 29.4324 42.5642C27.0257 39.0919 24.8416 35.4695 23.4204 32.6353C23.2377 32.2727 23.0604 31.9341 22.9127 31.6142C22.765 31.2942 22.6174 30.9742 22.4994 30.6728C22.2391 30.0755 22.0001 29.5742 21.8258 29.1342C21.507 28.2727 21.3167 27.7606 21.3167 27.7606C21.2041 27.4833 21.2484 27.2215 21.365 27.1705C21.5006 27.09 21.6948 27.2737 21.7884 27.5805Z" fill="url(#paint21_linear_463_910)"></path><path d="M42.9145 31.8414C44.3274 32.5612 46.1357 33.2185 48.0718 34.4521C50.0322 35.6803 52.096 37.4903 54.2309 40.5441C56.3955 43.6166 57.6948 46.4778 58.8114 48.9764C59.0823 49.6217 59.3617 50.1897 59.6166 50.763C59.8716 51.3363 60.1456 51.8802 60.4334 52.3707C60.5651 52.6186 60.7212 52.8611 60.8529 53.1091C61.0036 53.3276 61.1544 53.5461 61.3295 53.7592C61.631 54.1963 62.0331 54.5102 62.4352 54.8242L62.3217 54.7738C62.0948 54.6729 61.8434 54.5775 61.5974 54.5061C61.346 54.4106 61.1137 54.2857 60.8623 54.1903C60.611 54.0949 60.3543 53.9754 60.0732 53.8613C59.8165 53.7419 59.5598 53.6224 59.2788 53.5084C58.7166 53.2803 58.1438 53.0041 57.5467 52.7334C56.9495 52.4627 56.3173 52.1493 55.6851 51.836C53.1404 50.5105 50.3132 48.7186 47.6122 45.765C44.941 42.8301 43.7468 40.0967 43.2305 37.7674C42.7767 35.3738 42.9085 33.4299 42.9145 31.8414Z" fill="url(#paint22_linear_463_910)"></path><path d="M42.9145 31.8414C45.7869 36.7221 49.6784 41.9311 53.3327 46.185C55.1625 48.324 56.9093 50.2042 58.4682 51.6978C60.0217 53.1674 61.3491 54.3092 62.3408 54.7444C62.1138 54.6435 61.8625 54.5481 61.6164 54.4766C61.3651 54.3812 61.1327 54.2563 60.8814 54.1609C60.63 54.0654 60.3733 53.946 60.0923 53.8319C59.8356 53.7125 59.5789 53.593 59.2978 53.479C58.7357 53.2509 58.1629 52.9747 57.5657 52.704C56.9686 52.4333 56.3364 52.1199 55.7042 51.8066C53.1595 50.4811 50.3323 48.6892 47.6313 45.7356C44.96 42.8006 43.7658 40.0673 43.2495 37.738C42.7767 35.3738 42.9085 33.4299 42.9145 31.8414Z" fill="url(#paint23_linear_463_910)"></path><path d="M39.6629 24.9033C39.6629 24.9033 39.8478 25.3914 40.191 26.2475C40.36 26.6635 40.6233 27.1594 40.8836 27.7567C41.026 28.0527 41.1683 28.3487 41.316 28.6686C41.488 28.9832 41.6654 29.3218 41.8428 29.6604C43.3264 32.4303 45.5784 36.0125 48.0476 39.4205C48.6506 40.2946 49.2917 41.1099 49.9572 41.9197C50.5984 42.735 51.2342 43.5262 51.8646 44.2934C53.1256 45.8278 54.3302 47.2236 55.4032 48.3714C56.4571 49.5486 57.3846 50.5019 58.0372 51.1383C58.6898 51.7746 59.0782 52.142 59.0782 52.142C59.1132 52.1846 59.1483 52.2272 59.1292 52.2567C59.1101 52.2861 59.0561 52.2729 59.021 52.2303C59.021 52.2303 58.6326 51.8629 57.98 51.2265C57.3221 50.5662 56.3755 49.6423 55.2972 48.4704C54.219 47.2986 52.9709 45.9377 51.7099 44.4033C51.0551 43.6415 50.3949 42.8556 49.7538 42.0404C49.0883 41.2305 48.4228 40.4207 47.8198 39.5466C45.3018 36.1494 42.982 32.6074 41.4686 29.8189C41.2669 29.4857 41.0895 29.1471 40.9175 28.8326C40.7698 28.5126 40.5978 28.198 40.4554 27.902C40.1708 27.3101 39.9074 26.8142 39.7384 26.3982C39.3952 25.5421 39.1806 25.0354 39.1806 25.0354C39.0679 24.7581 39.0878 24.5017 39.2288 24.4453C39.3507 24.4183 39.5449 24.602 39.6629 24.9033Z" fill="url(#paint24_linear_463_910)"></path><path d="M60.3937 30.6123C61.8722 31.1664 63.7599 31.6045 65.8293 32.6322C67.9179 33.6305 70.1829 35.1943 72.6897 37.9642C75.2018 40.7581 76.8508 43.4662 78.2387 45.8039C78.5774 46.409 78.9246 46.9367 79.2527 47.4938C79.5808 48.0509 79.9174 48.5306 80.2486 48.9862C80.429 49.2234 80.5798 49.4419 80.7549 49.655C80.93 49.8681 81.1242 50.0518 81.294 50.2409C81.6634 50.6377 82.0792 50.8983 82.5194 51.1534L82.4113 51.127C82.1652 51.0556 81.9245 51.0081 81.6785 50.9367C81.408 50.8707 81.1811 50.7698 80.9106 50.7038C80.6646 50.6324 80.3888 50.5423 80.0887 50.4577C79.813 50.3677 79.5372 50.2776 79.2371 50.193C78.6612 50.0183 78.0313 49.8304 77.4204 49.6131C76.7851 49.4012 76.1254 49.1947 75.4795 48.9348C72.7983 47.9168 69.7615 46.4484 66.7533 43.8401C63.7452 41.2317 62.25 38.6407 61.4465 36.4002C60.662 34.1303 60.5637 32.187 60.3937 30.6123Z" fill="url(#paint25_linear_463_910)"></path><path d="M60.3937 30.6123C63.8224 35.1178 68.3221 39.8393 72.4626 43.6327C74.5233 45.5441 76.5064 47.2208 78.223 48.5031C79.9397 49.7853 81.3868 50.7746 82.4303 51.0976C82.1843 51.0261 81.9436 50.9787 81.6975 50.9073C81.4271 50.8413 81.2001 50.7404 80.9297 50.6744C80.6837 50.603 80.4079 50.5129 80.1078 50.4283C79.832 50.3382 79.5563 50.2482 79.2562 50.1636C78.6803 49.9889 78.0503 49.801 77.4394 49.5837C76.8042 49.3718 76.1445 49.1653 75.4986 48.9054C72.8173 47.8873 69.7805 46.419 66.7724 43.8107C63.7642 41.2023 62.2691 38.6113 61.4655 36.3708C60.662 34.1303 60.5637 32.187 60.3937 30.6123Z" fill="url(#paint26_linear_463_910)"></path><path d="M56.3367 24.0795C56.3367 24.0795 56.5894 24.5274 57.0005 25.3432C57.2182 25.7485 57.525 26.2095 57.8722 26.7372C58.0336 27.0037 58.2247 27.2889 58.4211 27.5981C58.6122 27.8832 58.8383 28.211 59.0591 28.5148C60.8628 31.113 63.5302 34.3764 66.3903 37.471C67.0993 38.246 67.8326 39.0156 68.5796 39.7318C69.3076 40.4774 70.0494 41.1696 70.7667 41.8672C72.1961 43.2383 73.5692 44.4707 74.7724 45.5141C75.9513 46.5628 77.0038 47.3877 77.7189 47.9598C78.4584 48.5265 78.8606 48.8404 78.8606 48.8404C78.92 48.8776 78.9306 48.9257 78.9116 48.9551C78.8925 48.9845 78.8384 48.9713 78.8034 48.9287C78.8034 48.9287 78.3769 48.6201 77.6374 48.0534C76.8979 47.4867 75.8454 46.6619 74.6474 45.6426C73.4251 44.6286 72.0521 43.3962 70.5983 42.0305C69.8619 41.3623 69.1148 40.6461 68.3921 39.9245C67.6451 39.2084 66.8874 38.4442 66.1784 37.6691C63.2695 34.5853 60.5534 31.3327 58.701 28.7453C58.4748 28.4175 58.254 28.1138 58.0332 27.81C57.8368 27.5008 57.6457 27.2157 57.4843 26.9491C57.1318 26.3974 56.825 25.9364 56.5829 25.5366C56.1475 24.7261 55.8894 24.2543 55.8894 24.2543C55.7524 23.9823 55.7235 23.7368 55.8592 23.6563C55.962 23.6587 56.1753 23.813 56.3367 24.0795Z" fill="url(#paint27_linear_463_910)"></path><path d="M77.9108 30.1307C79.4495 30.495 81.3868 30.6954 83.5684 31.4212C85.7743 32.1415 88.2246 33.3871 91.0683 35.8304C93.9416 38.2923 95.9191 40.7512 97.6163 42.8691C98.042 43.4046 98.4623 43.9161 98.8529 44.409C99.2435 44.9018 99.6479 45.3413 100.047 45.7567C100.246 45.9644 100.446 46.1721 100.64 46.3558C100.834 46.5395 101.048 46.6938 101.266 46.8721C101.679 47.2341 102.133 47.4358 102.611 47.6321L102.503 47.6057C102.262 47.5582 102.003 47.5402 101.743 47.5222C101.483 47.5042 101.237 47.4328 100.947 47.3962C100.682 47.3542 100.393 47.3176 100.098 47.257C99.833 47.215 99.5382 47.1543 99.219 47.0991C98.6103 47.0073 97.9963 46.8914 97.3526 46.757C96.7089 46.6226 96.0165 46.4989 95.3134 46.3272C92.5063 45.6646 89.3055 44.6105 85.9765 42.4008C82.6474 40.1911 80.8185 37.8252 79.7383 35.7216C78.6475 33.57 78.3002 31.6567 77.9108 30.1307Z" fill="url(#paint28_linear_463_910)"></path><path d="M77.9108 30.1307C81.8988 34.1594 87.0044 38.268 91.6045 41.4808C93.9099 43.1112 96.0889 44.5178 97.9633 45.5887C99.8324 46.6356 101.413 47.419 102.479 47.6111C102.238 47.5636 101.978 47.5457 101.718 47.5277C101.459 47.5097 101.213 47.4382 100.923 47.4016C100.658 47.3596 100.368 47.323 100.074 47.2624C99.8086 47.2204 99.5138 47.1597 99.1946 47.1045C98.5859 47.0127 97.9719 46.8969 97.3283 46.7624C96.6846 46.628 95.9921 46.5043 95.289 46.3326C92.4819 45.67 89.2812 44.6159 85.9521 42.4062C82.6231 40.1965 80.7941 37.8306 79.714 35.727C78.6475 33.57 78.3002 31.6567 77.9108 30.1307Z" fill="url(#paint29_linear_463_910)"></path><path d="M73.0368 24.1821C73.0368 24.1821 73.3383 24.6191 73.8849 25.3545C74.1461 25.7249 74.5207 26.1457 74.9357 26.6332C75.1459 26.8889 75.3561 27.1447 75.5959 27.419C75.8358 27.6934 76.1 27.9623 76.3696 28.2553C78.4964 30.5803 81.5738 33.5009 84.8333 36.2047C85.6238 36.886 86.4577 37.5326 87.2916 38.1791C88.1012 38.831 88.9245 39.4295 89.7425 40.004C91.335 41.1879 92.8711 42.233 94.1887 43.0998C95.5117 43.9907 96.6351 44.6738 97.4318 45.1523C98.2231 45.6067 98.6931 45.8804 98.6931 45.8804C98.7525 45.9177 98.7875 45.9603 98.7631 45.9657C98.7441 45.9951 98.69 45.9819 98.6603 45.9633C98.6603 45.9633 98.1957 45.7136 97.3746 45.2405C96.5779 44.7621 95.4301 44.0843 94.0881 43.2229C92.7461 42.3615 91.21 41.3163 89.5984 40.1619C88.7804 39.5874 87.9572 38.9889 87.1232 38.3424C86.2946 37.7199 85.4363 37.0787 84.6214 36.4028C81.3428 33.7284 78.1977 30.8481 76.0465 28.5284C75.7769 28.2355 75.5127 27.9665 75.2728 27.6922C75.0329 27.4178 74.8228 27.1621 74.6126 26.9064C74.1976 26.4189 73.823 25.9981 73.5321 25.6091C72.9801 24.8496 72.6595 24.442 72.6595 24.442C72.4791 24.2049 72.4205 23.9407 72.5562 23.8603C72.624 23.8201 72.8563 23.9449 73.0368 24.1821Z" fill="url(#paint30_linear_463_910)"></path><path d="M96.9985 30.1574C98.57 30.4389 100.505 30.5139 102.733 31.1033C104.986 31.6874 107.507 32.7913 110.489 35.0527C113.501 37.3326 115.628 39.6577 117.461 41.6952C117.911 42.2253 118.369 42.6779 118.779 43.1414C119.213 43.5994 119.642 44.0334 120.06 44.4194C120.284 44.6218 120.478 44.8055 120.697 44.9837C120.91 45.138 121.129 45.3163 121.336 45.4466C121.768 45.7792 122.241 45.9514 122.714 46.1237L122.582 46.1027C122.346 46.0793 122.087 46.0613 121.802 46.0487C121.543 46.0307 121.278 45.9887 120.988 45.9521C120.728 45.9341 120.439 45.8975 120.125 45.8663C119.835 45.8297 119.546 45.7931 119.257 45.7565C118.653 45.6886 118.025 45.6262 117.363 45.5212C116.705 45.4402 116.018 45.3406 115.301 45.2223C112.453 44.72 109.192 43.8556 105.735 41.8758C102.272 39.872 100.318 37.6346 99.0973 35.5875C97.9547 33.5482 97.4854 31.6619 96.9985 30.1574Z" fill="url(#paint31_linear_463_910)"></path><path d="M96.9985 30.1574C101.236 33.9292 106.557 37.7382 111.353 40.6809C113.754 42.1642 116.004 43.4291 117.954 44.3823C119.905 45.3356 121.518 46.0361 122.617 46.1453C122.381 46.1219 122.122 46.1039 121.837 46.0913C121.578 46.0733 121.313 46.0313 121.023 45.9947C120.763 45.9767 120.474 45.9401 120.16 45.9089C119.87 45.8723 119.581 45.8357 119.292 45.7991C118.688 45.7313 118.06 45.6689 117.398 45.5638C116.74 45.4828 116.053 45.3832 115.336 45.2649C112.488 44.7626 109.227 43.8982 105.77 41.9184C102.307 39.9146 100.353 37.6772 99.1324 35.6301C97.9547 33.5482 97.4854 31.6619 96.9985 30.1574Z" fill="url(#paint32_linear_463_910)"></path><path d="M91.7579 24.5168C91.7579 24.5168 92.0785 24.9244 92.6686 25.625C92.9541 25.99 93.3478 26.3814 93.7819 26.8395C94.0111 27.0658 94.2212 27.3215 94.4855 27.5905C94.7444 27.8354 95.0087 28.1043 95.2973 28.3679C97.5491 30.5644 100.814 33.2923 104.207 35.7902C105.041 36.4367 105.913 37.0244 106.785 37.6121C107.633 38.2052 108.499 38.7689 109.331 39.29C111 40.3561 112.574 41.3424 113.973 42.1156C115.353 42.9182 116.515 43.5425 117.35 43.9621C118.184 44.3817 118.644 44.6074 118.644 44.6074C118.703 44.6446 118.738 44.6873 118.714 44.6927C118.695 44.7221 118.641 44.7089 118.611 44.6903C118.611 44.6903 118.122 44.4459 117.292 44.0504C116.458 43.6307 115.277 43.0359 113.897 42.2333C112.498 41.4601 110.904 40.5032 109.211 39.4425C108.38 38.9214 107.489 38.3631 106.616 37.7754C105.75 37.2117 104.853 36.6294 103.995 35.9883C100.553 33.5012 97.2503 30.8322 94.9444 28.6224C94.6558 28.3589 94.3672 28.0954 94.1083 27.8504C93.844 27.5815 93.6095 27.3312 93.4047 27.0994C92.9653 26.6174 92.5472 26.2314 92.2617 25.8664C91.6662 25.1418 91.3213 24.7396 91.3213 24.7396C91.1408 24.5024 91.0579 24.2437 91.1691 24.1686C91.3208 24.1602 91.5531 24.2851 91.7579 24.5168Z" fill="url(#paint33_linear_463_910)"></path><defs><linearGradient id="paint0_linear_463_910" x1="115.91" y1="32.007" x2="93.9023" y2="36.8852" gradientUnits="userSpaceOnUse"><stop stop-color="#006838"></stop><stop offset="1" stop-color="#62A73B"></stop></linearGradient><linearGradient id="paint1_linear_463_910" x1="115.91" y1="32.007" x2="93.9023" y2="36.8852" gradientUnits="userSpaceOnUse"><stop stop-color="#006838"></stop><stop offset="1" stop-color="#62A73B"></stop></linearGradient><linearGradient id="paint2_linear_463_910" x1="115.91" y1="32.007" x2="93.9023" y2="36.8852" gradientUnits="userSpaceOnUse"><stop stop-color="#006838"></stop><stop offset="1" stop-color="#62A73B"></stop></linearGradient><linearGradient id="paint3_linear_463_910" x1="115.91" y1="32.007" x2="93.9023" y2="36.8852" gradientUnits="userSpaceOnUse"><stop stop-color="#006838"></stop><stop offset="1" stop-color="#62A73B"></stop></linearGradient><linearGradient id="paint4_linear_463_910" x1="115.91" y1="32.007" x2="93.9023" y2="36.8852" gradientUnits="userSpaceOnUse"><stop stop-color="#006838"></stop><stop offset="1" stop-color="#62A73B"></stop></linearGradient><linearGradient id="paint5_linear_463_910" x1="115.91" y1="32.007" x2="93.9023" y2="36.8852" gradientUnits="userSpaceOnUse"><stop stop-color="#006838"></stop><stop offset="1" stop-color="#62A73B"></stop></linearGradient><linearGradient id="paint6_linear_463_910" x1="115.91" y1="32.007" x2="93.9023" y2="36.8852" gradientUnits="userSpaceOnUse"><stop stop-color="#006838"></stop><stop offset="1" stop-color="#62A73B"></stop></linearGradient><linearGradient id="paint7_linear_463_910" x1="115.91" y1="32.007" x2="93.9023" y2="36.8852" gradientUnits="userSpaceOnUse"><stop stop-color="#006838"></stop><stop offset="1" stop-color="#62A73B"></stop></linearGradient><linearGradient id="paint8_linear_463_910" x1="115.91" y1="32.007" x2="93.9023" y2="36.8852" gradientUnits="userSpaceOnUse"><stop stop-color="#006838"></stop><stop offset="1" stop-color="#62A73B"></stop></linearGradient><linearGradient id="paint9_linear_463_910" x1="115.91" y1="32.007" x2="93.9023" y2="36.8852" gradientUnits="userSpaceOnUse"><stop stop-color="#006838"></stop><stop offset="1" stop-color="#62A73B"></stop></linearGradient><linearGradient id="paint10_linear_463_910" x1="115.91" y1="32.007" x2="93.9023" y2="36.8852" gradientUnits="userSpaceOnUse"><stop stop-color="#006838"></stop><stop offset="1" stop-color="#62A73B"></stop></linearGradient><linearGradient id="paint11_linear_463_910" x1="115.91" y1="32.007" x2="93.9023" y2="36.8852" gradientUnits="userSpaceOnUse"><stop stop-color="#006838"></stop><stop offset="1" stop-color="#62A73B"></stop></linearGradient><linearGradient id="paint12_linear_463_910" x1="115.91" y1="32.007" x2="93.9023" y2="36.8852" gradientUnits="userSpaceOnUse"><stop stop-color="#006838"></stop><stop offset="1" stop-color="#62A73B"></stop></linearGradient><linearGradient id="paint13_linear_463_910" x1="115.91" y1="32.007" x2="93.9023" y2="36.8852" gradientUnits="userSpaceOnUse"><stop stop-color="#006838"></stop><stop offset="1" stop-color="#62A73B"></stop></linearGradient><linearGradient id="paint14_linear_463_910" x1="115.91" y1="32.007" x2="93.9023" y2="36.8852" gradientUnits="userSpaceOnUse"><stop stop-color="#006838"></stop><stop offset="1" stop-color="#62A73B"></stop></linearGradient><linearGradient id="paint15_linear_463_910" x1="115.91" y1="32.007" x2="93.9023" y2="36.8852" gradientUnits="userSpaceOnUse"><stop stop-color="#006838"></stop><stop offset="1" stop-color="#62A73B"></stop></linearGradient><linearGradient id="paint16_linear_463_910" x1="115.91" y1="32.007" x2="93.9023" y2="36.8852" gradientUnits="userSpaceOnUse"><stop stop-color="#006838"></stop><stop offset="1" stop-color="#62A73B"></stop></linearGradient><linearGradient id="paint17_linear_463_910" x1="115.91" y1="32.007" x2="93.9023" y2="36.8852" gradientUnits="userSpaceOnUse"><stop stop-color="#006838"></stop><stop offset="1" stop-color="#62A73B"></stop></linearGradient><linearGradient id="paint18_linear_463_910" x1="115.91" y1="32.007" x2="93.9023" y2="36.8852" gradientUnits="userSpaceOnUse"><stop stop-color="#006838"></stop><stop offset="1" stop-color="#62A73B"></stop></linearGradient><linearGradient id="paint19_linear_463_910" x1="115.91" y1="32.007" x2="93.9023" y2="36.8852" gradientUnits="userSpaceOnUse"><stop stop-color="#006838"></stop><stop offset="1" stop-color="#62A73B"></stop></linearGradient><linearGradient id="paint20_linear_463_910" x1="115.91" y1="32.007" x2="93.9023" y2="36.8852" gradientUnits="userSpaceOnUse"><stop stop-color="#006838"></stop><stop offset="1" stop-color="#62A73B"></stop></linearGradient><linearGradient id="paint21_linear_463_910" x1="115.91" y1="32.007" x2="93.9023" y2="36.8852" gradientUnits="userSpaceOnUse"><stop stop-color="#006838"></stop><stop offset="1" stop-color="#62A73B"></stop></linearGradient><linearGradient id="paint22_linear_463_910" x1="115.91" y1="32.007" x2="93.9023" y2="36.8852" gradientUnits="userSpaceOnUse"><stop stop-color="#006838"></stop><stop offset="1" stop-color="#62A73B"></stop></linearGradient><linearGradient id="paint23_linear_463_910" x1="115.91" y1="32.007" x2="93.9023" y2="36.8852" gradientUnits="userSpaceOnUse"><stop stop-color="#006838"></stop><stop offset="1" stop-color="#62A73B"></stop></linearGradient><linearGradient id="paint24_linear_463_910" x1="115.91" y1="32.007" x2="93.9023" y2="36.8852" gradientUnits="userSpaceOnUse"><stop stop-color="#006838"></stop><stop offset="1" stop-color="#62A73B"></stop></linearGradient><linearGradient id="paint25_linear_463_910" x1="115.91" y1="32.007" x2="93.9023" y2="36.8852" gradientUnits="userSpaceOnUse"><stop stop-color="#006838"></stop><stop offset="1" stop-color="#62A73B"></stop></linearGradient><linearGradient id="paint26_linear_463_910" x1="115.91" y1="32.007" x2="93.9023" y2="36.8852" gradientUnits="userSpaceOnUse"><stop stop-color="#006838"></stop><stop offset="1" stop-color="#62A73B"></stop></linearGradient><linearGradient id="paint27_linear_463_910" x1="115.91" y1="32.007" x2="93.9023" y2="36.8852" gradientUnits="userSpaceOnUse"><stop stop-color="#006838"></stop><stop offset="1" stop-color="#62A73B"></stop></linearGradient><linearGradient id="paint28_linear_463_910" x1="115.91" y1="32.007" x2="93.9023" y2="36.8852" gradientUnits="userSpaceOnUse"><stop stop-color="#006838"></stop><stop offset="1" stop-color="#62A73B"></stop></linearGradient><linearGradient id="paint29_linear_463_910" x1="115.91" y1="32.007" x2="93.9023" y2="36.8852" gradientUnits="userSpaceOnUse"><stop stop-color="#006838"></stop><stop offset="1" stop-color="#62A73B"></stop></linearGradient><linearGradient id="paint30_linear_463_910" x1="115.91" y1="32.007" x2="93.9023" y2="36.8852" gradientUnits="userSpaceOnUse"><stop stop-color="#006838"></stop><stop offset="1" stop-color="#62A73B"></stop></linearGradient><linearGradient id="paint31_linear_463_910" x1="115.91" y1="32.007" x2="93.9023" y2="36.8852" gradientUnits="userSpaceOnUse"><stop stop-color="#006838"></stop><stop offset="1" stop-color="#62A73B"></stop></linearGradient><linearGradient id="paint32_linear_463_910" x1="115.91" y1="32.007" x2="93.9023" y2="36.8852" gradientUnits="userSpaceOnUse"><stop stop-color="#006838"></stop><stop offset="1" stop-color="#62A73B"></stop></linearGradient><linearGradient id="paint33_linear_463_910" x1="115.91" y1="32.007" x2="93.9023" y2="36.8852" gradientUnits="userSpaceOnUse"><stop stop-color="#006838"></stop><stop offset="1" stop-color="#62A73B"></stop></linearGradient></defs></svg>